name C:\Users\r0593348\3dpredictsim\Results\batch_windlass\Pog_s1_tmt_bCst_d05_k1500_WL40_ig24_act_TTC.mot
datacolumns 128
datarows 4
range 0.00000000 0.03548129
endheader
time	pelvis_tilt	pelvis_list	pelvis_rotation	pelvis_tx	pelvis_ty	pelvis_tz	hip_flexion_l	hip_adduction_l	hip_rotation_l	hip_flexion_r	hip_adduction_r	hip_rotation_r	knee_angle_l	knee_angle_r	ankle_angle_l	ankle_angle_r	subtalar_angle_l	subtalar_angle_r	tmt_angle_l	tmt_angle_r	mtp_angle_l	mtp_angle_r	lumbar_extension	lumbar_bending	lumbar_rotation	arm_flex_l	arm_add_l	arm_rot_l	arm_flex_r	arm_add_r	arm_rot_r	elbow_flex_l	elbow_flex_r	pro_sup_l	pro_sup_r	glut_med1_l/activation	glut_med2_l/activation	glut_med3_l/activation	glut_min1_l/activation	glut_min2_l/activation	glut_min3_l/activation	semimem_l/activation	semiten_l/activation	bifemlh_l/activation	bifemsh_l/activation	sar_l/activation	add_long_l/activation	add_brev_l/activation	add_mag1_l/activation	add_mag2_l/activation	add_mag3_l/activation	tfl_l/activation	pect_l/activation	grac_l/activation	glut_max1_l/activation	glut_max2_l/activation	glut_max3_l/activation	iliacus_l/activation	psoas_l/activation	quad_fem_l/activation	gem_l/activation	peri_l/activation	rect_fem_l/activation	vas_med_l/activation	vas_int_l/activation	vas_lat_l/activation	med_gas_l/activation	lat_gas_l/activation	soleus_l/activation	tib_post_l/activation	flex_dig_l/activation	flex_hal_l/activation	tib_ant_l/activation	per_brev_l/activation	per_long_l/activation	per_tert_l/activation	ext_dig_l/activation	ext_hal_l/activation	ercspn_l/activation	intobl_l/activation	extobl_l/activation	glut_med1_r/activation	glut_med2_r/activation	glut_med3_r/activation	glut_min1_r/activation	glut_min2_r/activation	glut_min3_r/activation	semimem_r/activation	semiten_r/activation	bifemlh_r/activation	bifemsh_r/activation	sar_r/activation	add_long_r/activation	add_brev_r/activation	add_mag1_r/activation	add_mag2_r/activation	add_mag3_r/activation	tfl_r/activation	pect_r/activation	grac_r/activation	glut_max1_r/activation	glut_max2_r/activation	glut_max3_r/activation	iliacus_r/activation	psoas_r/activation	quad_fem_r/activation	gem_r/activation	peri_r/activation	rect_fem_r/activation	vas_med_r/activation	vas_int_r/activation	vas_lat_r/activation	med_gas_r/activation	lat_gas_r/activation	soleus_r/activation	tib_post_r/activation	flex_dig_r/activation	flex_hal_r/activation	tib_ant_r/activation	per_brev_r/activation	per_long_r/activation	per_tert_r/activation	ext_dig_r/activation	ext_hal_r/activation	ercspn_r/activation	intobl_r/activation	extobl_r/activation	
          0.00000000	         -2.93017641	         -0.94695704	          7.78767794	          0.00000000	          0.85751363	         -0.00248072	        -16.01995928	         -2.41789924	          5.93241859	         33.04583797	         -0.02295210	         -2.65099743	        -14.29074097	        -18.18510211	         -0.70111867	          6.76828354	         16.90442030	          3.74174569	        -14.32018588	         -0.37101083	         33.75319215	          0.79368199	          0.31844563	         -1.67371359	         -2.51028602	          3.50052502	        -13.49600234	         16.56409174	        -11.24445943	        -13.48900229	         12.84203623	         37.81907301	         15.91081716	         86.51662706	         86.51662706	          0.17900454	          0.08577874	          0.06208785	          0.21643749	          0.13412702	          0.08578020	          0.05000355	          0.05000047	          0.05000035	          0.05000075	          0.10268391	          0.07765553	          0.05000081	          0.05000086	          0.05000196	          0.05000145	          0.17876109	          0.05000337	          0.05000107	          0.05000539	          0.05000372	          0.05000228	          0.28758464	          0.43907230	          0.05000031	          0.05000114	          0.06236990	          0.17774084	          0.09038777	          0.09902724	          0.07169283	          0.15674316	          0.20728238	          0.05000001	          0.12457994	          0.11090398	          0.14395476	          0.15746993	          0.36538145	          0.30650588	          0.27280019	          0.27757851	          0.05000066	          0.05000001	          0.05000008	          0.05000011	          0.05000050	          0.05019059	          0.05000094	          0.05000074	          0.05000101	          0.05000515	          0.05625134	          0.05985608	          0.07165493	          0.05985510	          0.05078614	          0.05242411	          0.07844308	          0.14610309	          0.12564191	          0.10873462	          0.05000255	          0.05000285	          0.05985593	          0.05985705	          0.05988916	          0.11810074	          0.06831122	          0.07165268	          0.17292792	          0.05000138	          0.09502462	          0.05831480	          0.08807174	          0.09705760	          0.07857804	          0.05842793	          0.05487038	          0.05985586	          0.05985567	          0.05985866	          0.05985812	          0.51565666	          0.28904281	          0.20335274	          0.20050513	          0.52622189	          0.24763443	          0.05000017	          0.13741622	          0.11282935	
          0.01182710	         -2.92508139	         -0.83696844	          7.95993277	          0.01885469	          0.85660062	         -0.00216263	        -16.35484229	         -2.59538758	          5.68695196	         32.41695544	          0.12363402	         -2.46700312	        -15.28592409	        -17.84010661	         -3.14501188	          6.32772361	         17.27006315	          3.31998141	        -14.88783923	         -0.41895931	         34.86558336	          0.89627353	          0.54856953	         -1.54991660	         -2.59972125	          3.15558412	        -13.54701570	         16.87742554	        -12.68648593	        -13.47347439	         12.81709870	         38.96058168	         16.03600799	         86.51662706	         86.51662706	          0.14952973	          0.07165448	          0.05186497	          0.18079893	          0.11204168	          0.07165573	          0.05000112	          0.05000015	          0.05000018	          0.05000025	          0.08577621	          0.13607973	          0.16579533	          0.06402082	          0.05000503	          0.05000078	          0.14932624	          0.07801381	          0.05000675	          0.05000429	          0.05000217	          0.05000160	          0.24023082	          0.36677443	          0.07165431	          0.05001502	          0.05210114	          0.14847393	          0.07897577	          0.09713416	          0.05988923	          0.13093374	          0.17315114	          0.05000001	          0.10406654	          0.09264257	          0.12025113	          0.32825491	          0.33575738	          0.28067278	          0.59339615	          0.39944269	          0.21444804	          0.05818533	          0.05687534	          0.05000053	          0.08305495	          0.05000229	          0.23181483	          0.05985622	          0.05985596	          0.05000562	          0.05000055	          0.05000032	          0.05985641	          0.05000018	          0.05000134	          0.08577975	          0.13912355	          0.20769695	          0.19738042	          0.14581548	          0.05000032	          0.07905925	          0.05000139	          0.05000117	          0.05002787	          0.15836930	          0.05985603	          0.05985547	          0.14445362	          0.14084257	          0.15924098	          0.07165467	          0.20786573	          0.20091694	          0.17502327	          0.05000003	          0.05000006	          0.05000003	          0.05000004	          0.05000247	          0.05000205	          0.69093326	          0.31085457	          0.16986927	          0.55297322	          0.62000825	          0.40748955	          0.05000009	          0.11478919	          0.09425080	
          0.02365419	         -2.91294746	         -0.73745908	          8.09486928	          0.03788280	          0.85531356	         -0.00185151	        -16.51239129	         -2.74672680	          5.43824963	         31.68295037	          0.29132774	         -2.22474083	        -16.68866690	        -18.19855438	         -5.39463425	          5.74803835	         17.55054882	          2.89553503	        -14.96569272	         -0.52815231	         34.81237535	          1.08224652	          0.78604989	         -1.39785934	         -2.67624675	          2.75147467	        -13.61008001	         17.12681260	        -14.10138054	        -13.46882356	         12.86268603	         40.09074914	         16.12421038	         86.51662706	         86.51662706	          0.12490818	          0.05985598	          0.05985563	          0.15102867	          0.09359292	          0.05985698	          0.05985492	          0.05985687	          0.05986376	          0.05000145	          0.07165246	          0.18103577	          0.30711433	          0.20718397	          0.10586570	          0.15175382	          0.12473814	          0.06516857	          0.05985464	          0.05005509	          0.05985082	          0.05985725	          0.20067429	          0.30638120	          0.05985599	          0.05985502	          0.05000103	          0.12402613	          0.06597166	          0.08114008	          0.05002789	          0.10937411	          0.14463997	          0.05000001	          0.08693090	          0.07738812	          0.10045056	          0.45834649	          0.37227532	          0.27654045	          0.51704839	          0.48283305	          0.30274697	          0.06989440	          0.05985589	          0.05508764	          0.16992126	          0.05000043	          0.19364459	          0.05000038	          0.05000032	          0.05000048	          0.05000017	          0.05000049	          0.05000062	          0.05000010	          0.05000025	          0.07165532	          0.11621549	          0.21371522	          0.21227639	          0.14093788	          0.05000137	          0.06604310	          0.05001169	          0.12712492	          0.12250686	          0.15183225	          0.05000019	          0.05000019	          0.27733507	          0.11765154	          0.13302041	          0.05985608	          0.25343399	          0.24339330	          0.21403917	          0.05000017	          0.05000031	          0.05000003	          0.05000005	          0.05000288	          0.05000079	          0.58439148	          0.31471109	          0.17370233	          0.59300208	          0.58463410	          0.34039218	          0.05000002	          0.09588794	          0.07873141	
          0.03548129	         -2.89579431	         -0.64761438	          8.18842718	          0.05686260	          0.85370874	         -0.00154815	        -16.45440757	         -2.86803856	          5.20538343	         30.81118938	          0.46372711	         -1.95150684	        -18.54900456	        -18.89932688	         -7.33661905	          5.43116828	         17.75374010	          2.42848486	        -14.39453861	         -0.76318784	         33.18941602	          1.17293959	          1.01206472	         -1.22135730	         -2.73648154	          2.32038093	        -13.67645877	         17.30361222	        -15.43769628	        -13.47920669	         13.02849771	         41.19699741	         16.14097281	         86.51662706	         86.51662706	          0.29520578	          0.05000024	          0.05000007	          0.20160819	          0.07818196	          0.05000107	          0.05000433	          0.05000091	          0.05000665	          0.05000026	          0.05985491	          0.15122694	          0.26028124	          0.17306914	          0.08843443	          0.12676623	          0.10419876	          0.05986111	          0.05000110	          0.05000169	          0.05000119	          0.05000162	          0.16763120	          0.30420464	          0.05000021	          0.05000048	          0.05000013	          0.10360391	          0.07165424	          0.07165111	          0.07165417	          0.09136450	          0.12082348	          0.05000003	          0.07261683	          0.06464561	          0.08391042	          0.38287488	          0.31097656	          0.23100527	          0.43191097	          0.62938567	          0.25289651	          0.10278087	          0.05000001	          0.05000009	          0.25021304	          0.30933393	          0.47982991	          0.24066693	          0.18984531	          0.38153045	          0.05985760	          0.06883734	          0.06455977	          0.07165449	          0.05985537	          0.05985658	          0.09707942	          0.17852484	          0.17732303	          0.13787046	          0.05000038	          0.05985333	          0.07165389	          0.23667787	          0.18229814	          0.14686454	          0.05769518	          0.05000103	          0.23166907	          0.10269178	          0.33483240	          0.05000019	          0.21379342	          0.25658852	          0.22691862	          0.05000008	          0.05000017	          0.05000005	          0.05000007	          0.05000031	          0.05000048	          0.73243854	          0.26289059	          0.14510041	          0.63433993	          0.64057452	          0.46438105	          0.06355439	          0.08577893	          0.06576745	
